<?xml version="1.0" encoding="UTF-8" standalone="no"?>
<!-- Created with Inkscape (http://www.inkscape.org/) -->
<svg
   xmlns:dc="http://purl.org/dc/elements/1.1/"
   xmlns:cc="http://web.resource.org/cc/"
   xmlns:rdf="http://www.w3.org/1999/02/22-rdf-syntax-ns#"
   xmlns:svg="http://www.w3.org/2000/svg"
   xmlns="http://www.w3.org/2000/svg"
   xmlns:sodipodi="http://sodipodi.sourceforge.net/DTD/sodipodi-0.dtd"
   xmlns:inkscape="http://www.inkscape.org/namespaces/inkscape"
   id="svg1938"
   sodipodi:version="0.32"
   inkscape:version="0.44"
   width="286.51743"
   height="393.61954"
   version="1.0"
   sodipodi:docbase="C:\Documents and Settings\Nevit\Belgelerim\bilfen-odev\2sinif"
   sodipodi:docname="ata.svg">
  <metadata
     id="metadata1943">
    <rdf:RDF>
      <cc:Work
         rdf:about="">
        <dc:format>image/svg+xml</dc:format>
        <dc:type
           rdf:resource="http://purl.org/dc/dcmitype/StillImage" />
      </cc:Work>
    </rdf:RDF>
  </metadata>
  <defs
     id="defs1941" />
  <sodipodi:namedview
     inkscape:window-height="573"
     inkscape:window-width="882"
     inkscape:pageshadow="2"
     inkscape:pageopacity="0.0"
     guidetolerance="10.0"
     gridtolerance="10.0"
     objecttolerance="10.0"
     borderopacity="1.0"
     bordercolor="#666666"
     pagecolor="#ffffff"
     id="base"
     inkscape:zoom="0.90407674"
     inkscape:cx="157.5"
     inkscape:cy="208.5"
     inkscape:window-x="51"
     inkscape:window-y="38"
     inkscape:current-layer="svg1938" />
  <path
     style="fill:black"
     d="M 151.29704,389.86954 C 149.90525,387.80704 146.16543,382.06954 142.98633,377.11954 C 123.81272,347.2654 93.833182,321.54188 57.346575,303.63758 C 49.646575,299.85912 38.850865,295.11144 33.356115,293.08718 C 27.861365,291.06292 21.673865,288.06678 19.606115,286.42909 L 15.846575,283.45148 L 15.846575,273.75802 C 15.846575,266.6285 16.255825,263.48026 17.393825,261.85554 C 18.835015,259.79796 18.571205,258.49734 13.545665,242.88303 C 8.0781653,225.89558 6.2433953,217.15582 3.4135353,194.61954 C 0.55481532,171.85334 -0.39989468,155.34315 0.14707532,138.13134 C 0.59943532,123.89702 1.2661353,118.34935 4.2305353,104.15239 C 11.595415,68.880944 19.967885,51.17975 36.755875,35.386806 C 54.718545,18.488818 71.818525,9.1454739 95.943912,3.0467499 C 104.222,0.95410893 108.80432,0.49824093 125.54245,0.10216593 C 147.40821,-0.41524507 158.46482,0.95895493 172.34657,5.9193389 C 183.82938,10.022505 202.72281,19.514631 207.34657,23.503462 C 208.44657,24.452411 211.19305,26.404432 213.44986,27.841286 C 219.9742,31.995161 234.80536,48.785596 241.34657,59.423293 C 244.64657,64.789944 250.71669,74.342048 254.83572,80.650191 C 258.95475,86.958333 262.91961,93.469538 263.64651,95.119538 C 266.74678,102.15684 271.0971,116.53036 272.3967,124.0303 C 275.02213,139.18159 275.5392,140.68179 281.54091,150.56071 C 283.88733,154.42295 284.84657,157.21534 284.84657,160.18358 C 284.84657,164.08769 284.3485,164.8384 277.34356,171.49241 C 273.2169,175.41233 269.34311,178.61954 268.73515,178.61954 C 268.0683,178.61954 267.86825,179.5698 268.23092,181.01476 C 268.56155,182.33213 268.16436,185.00806 267.34826,186.96126 C 266.53215,188.91447 266.25507,190.75397 266.73251,191.04905 C 267.20995,191.34412 268.12972,193.68696 268.77645,196.25535 C 269.42318,198.82375 273.24758,207.2689 277.27513,215.02235 C 281.30267,222.77581 285.17511,231.70539 285.88056,234.86587 C 287.47451,242.00698 286.74281,243.0115 275.80042,248.70436 C 271.60198,250.88863 267.0372,253.90061 265.65647,255.39765 C 262.08389,259.27118 259.82323,265.70085 260.52134,270.00278 C 261.15606,273.91416 258.90055,278.61954 256.3909,278.61954 C 254.45621,278.61954 253.50731,282.11711 254.79117,284.51603 C 256.59644,287.8892 255.96767,291.01693 252.68329,295.00146 C 249.53242,298.82401 249.51748,298.89722 248.87667,313.65456 C 248.24827,328.12594 248.1507,328.62857 244.67583,335.2948 C 242.71429,339.05783 239.77032,343.04459 238.11354,344.18154 C 236.4609,345.31564 230.36476,347.50096 224.56655,349.03781 C 215.69294,351.3898 212.70449,351.75103 205.68546,351.32002 C 198.02121,350.84939 172.75969,347.4277 166.82429,346.05625 C 165.12435,345.66346 163.46127,346.13477 161.72329,347.50187 C 158.98528,349.65559 158.75063,351.2602 156.25876,384.86954 C 155.90195,389.68204 155.20896,393.61954 154.71879,393.61954 C 154.22861,393.61954 152.68883,391.93204 151.29704,389.86954 z "
     id="path1947" />
</svg>
