<?xml version="1.0" encoding="UTF-8" standalone="no"?>
<!-- Created with Inkscape (http://www.inkscape.org/) -->

<svg
   xmlns:dc="http://purl.org/dc/elements/1.1/"
   xmlns:cc="http://creativecommons.org/ns#"
   xmlns:rdf="http://www.w3.org/1999/02/22-rdf-syntax-ns#"
   xmlns:svg="http://www.w3.org/2000/svg"
   xmlns="http://www.w3.org/2000/svg"
   xmlns:sodipodi="http://sodipodi.sourceforge.net/DTD/sodipodi-0.dtd"
   xmlns:inkscape="http://www.inkscape.org/namespaces/inkscape"
   id="svg1938"
   sodipodi:version="0.32"
   inkscape:version="0.48+devel r10518"
   width="377.18018"
   height="494.42706"
   version="1.0"
   sodipodi:docname="Ataturk_face_or_vase.svg">
  <metadata
     id="metadata1943">
    <rdf:RDF>
      <cc:Work
         rdf:about="">
        <dc:format>image/svg+xml</dc:format>
        <dc:type
           rdf:resource="http://purl.org/dc/dcmitype/StillImage" />
        <dc:title />
      </cc:Work>
    </rdf:RDF>
  </metadata>
  <defs
     id="defs1941" />
  <sodipodi:namedview
     inkscape:window-height="744"
     inkscape:window-width="1280"
     inkscape:pageshadow="2"
     inkscape:pageopacity="0.0"
     guidetolerance="10.0"
     gridtolerance="10.0"
     objecttolerance="10.0"
     borderopacity="1.0"
     bordercolor="#666666"
     pagecolor="#ffffff"
     id="base"
     inkscape:zoom="0.90407674"
     inkscape:cx="220.67876"
     inkscape:cy="235.91594"
     inkscape:window-x="-4"
     inkscape:window-y="-4"
     inkscape:current-layer="svg1938"
     showgrid="false"
     fit-margin-top="0"
     fit-margin-left="0"
     fit-margin-right="0"
     fit-margin-bottom="0"
     inkscape:window-maximized="1" />
  <rect
     style="fill:#000000;fill-rule:evenodd;stroke:none"
     id="rect21931"
     width="377.18018"
     height="494.42706"
     x="0"
     y="0"
     inkscape:export-xdpi="145.55377"
     inkscape:export-ydpi="145.55377" />
  <rect
     style="fill:#e9ddaf;fill-rule:evenodd;stroke:none"
     id="rect21925"
     width="280.94962"
     height="399.54105"
     x="48.108368"
     y="47.998013"
     rx="73.228119"
     ry="42.109692"
     inkscape:export-xdpi="179.70076"
     inkscape:export-ydpi="179.70076" />
  <g
     id="g21927"
     transform="translate(-130.54556,73.391582)"
     style="stroke:none">
    <path
       inkscape:connector-curvature="0"
       id="path1947"
       d="m 151.29704,389.86954 c -1.39179,-2.0625 -5.13161,-7.8 -8.31071,-12.75 -19.17361,-29.85414 -49.153148,-55.57766 -85.639755,-73.48196 -7.7,-3.77846 -18.49571,-8.52614 -23.99046,-10.5504 -5.49475,-2.02426 -11.68225,-5.0204 -13.75,-6.65809 l -3.75954,-2.97761 0,-9.69346 c 0,-7.12952 0.40925,-10.27776 1.54725,-11.90248 1.44119,-2.05758 1.17738,-3.3582 -3.84816,-18.97251 C 8.0781653,225.89558 6.2433953,217.15582 3.4135353,194.61954 0.55481532,171.85334 -0.39989468,155.34315 0.14707532,138.13134 0.59943532,123.89702 1.2661353,118.34935 4.2305353,104.15239 11.595415,68.880943 19.967885,51.179749 36.755875,35.386805 54.718545,18.488817 71.818525,9.1454726 95.943912,3.0467486 104.222,0.95410761 108.80432,0.49823961 125.54245,0.10216461 c 21.86576,-0.517411 32.92237,0.856789 46.80412,5.81717299 11.48281,4.1031664 30.37624,13.5952924 35,17.5841234 1.1,0.948949 3.84648,2.90097 6.10329,4.337824 6.52434,4.153875 21.3555,20.94431 27.89671,31.582007 3.3,5.366651 9.37012,14.918755 13.48915,21.226898 4.11903,6.308142 8.08389,12.819347 8.81079,14.469347 3.10027,7.037303 7.45059,21.410823 8.75019,28.910763 2.62543,15.15129 3.1425,16.65149 9.14421,26.53041 2.34642,3.86224 3.30566,6.65463 3.30566,9.62287 0,3.90411 -0.49807,4.65482 -7.50301,11.30883 -4.12666,3.91992 -8.00045,7.12713 -8.60841,7.12713 -0.66685,0 -0.8669,0.95026 -0.50423,2.39522 0.33063,1.31737 -0.0666,3.9933 -0.88266,5.9465 -0.81611,1.95321 -1.09319,3.79271 -0.61575,4.08779 0.47744,0.29507 1.39721,2.63791 2.04394,5.2063 0.64673,2.5684 4.47113,11.01355 8.49868,18.767 4.02754,7.75346 7.89998,16.68304 8.60543,19.84352 1.59395,7.14111 0.86225,8.14563 -10.08014,13.83849 -4.19844,2.18427 -8.76322,5.19625 -10.14395,6.69329 -3.57258,3.87353 -5.83324,10.3032 -5.13513,14.60513 0.63472,3.91138 -1.62079,8.61676 -4.13044,8.61676 -1.93469,0 -2.88359,3.49757 -1.59973,5.89649 1.80527,3.37317 1.1765,6.5009 -2.10788,10.48543 -3.15087,3.82255 -3.16581,3.89576 -3.80662,18.6531 -0.6284,14.47138 -0.72597,14.97401 -4.20084,21.64024 -1.96154,3.76303 -4.90551,7.74979 -6.56229,8.88674 -1.65264,1.1341 -7.74878,3.31942 -13.54699,4.85627 -8.87361,2.35199 -11.86206,2.71322 -18.88109,2.28221 -7.66425,-0.47063 -32.92577,-3.89232 -38.86117,-5.26377 -1.69994,-0.39279 -3.36302,0.0785 -5.101,1.44562 -2.73801,2.15372 -2.97266,3.75833 -5.46453,37.36767 -0.35681,4.8125 -1.0498,8.75 -1.53997,8.75 -0.49018,0 -2.02996,-1.6875 -3.42175,-3.75 z"
       style="fill:#000000;stroke:none" />
    <path
       inkscape:connector-curvature="0"
       style="fill:#000000;stroke:none"
       d="m 486.96043,389.86954 c 1.39179,-2.0625 5.13161,-7.8 8.31071,-12.75 19.17361,-29.85414 49.15314,-55.57766 85.63975,-73.48196 7.7,-3.77846 18.49571,-8.52614 23.99046,-10.5504 5.49475,-2.02426 11.68225,-5.0204 13.75,-6.65809 l 3.75954,-2.97761 0,-9.69346 c 0,-7.12952 -0.40925,-10.27776 -1.54725,-11.90248 -1.44119,-2.05758 -1.17738,-3.3582 3.84816,-18.97251 5.4675,-16.98745 7.30227,-25.72721 10.13213,-48.26349 2.85872,-22.7662 3.81343,-39.27639 3.26646,-56.4882 -0.45236,-14.23432 -1.11906,-19.78199 -4.08346,-33.97895 C 626.66205,68.880945 618.28958,51.179751 601.50159,35.386807 583.53892,18.488819 566.43894,9.1454747 542.31355,3.0467506 534.03547,0.95410959 529.45315,0.49824159 512.71502,0.10216659 c -21.86576,-0.517411 -32.92237,0.856789 -46.80412,5.81717311 -11.48281,4.1031663 -30.37624,13.5952923 -35,17.5841233 -1.1,0.948949 -3.84648,2.90097 -6.10329,4.337824 -6.52434,4.153875 -21.3555,20.94431 -27.89671,31.582007 -3.3,5.366651 -9.37012,14.918755 -13.48915,21.226898 -4.11903,6.308142 -8.08389,12.819347 -8.81079,14.469345 -3.10027,7.037303 -7.45059,21.410823 -8.75019,28.910763 -2.62543,15.15129 -3.1425,16.65149 -9.14421,26.53041 -2.34642,3.86224 -3.30566,6.65463 -3.30566,9.62287 0,3.90411 0.49807,4.65482 7.50301,11.30883 4.12666,3.91992 8.00045,7.12713 8.60841,7.12713 0.66685,0 0.8669,0.95026 0.50423,2.39522 -0.33063,1.31737 0.0666,3.9933 0.88266,5.9465 0.81611,1.95321 1.09319,3.79271 0.61575,4.08779 -0.47744,0.29507 -1.39721,2.63791 -2.04394,5.2063 -0.64673,2.5684 -4.47113,11.01355 -8.49868,18.767 -4.02754,7.75346 -7.89998,16.68304 -8.60543,19.84352 -1.59395,7.14111 -0.86225,8.14563 10.08014,13.83849 4.19844,2.18427 8.76322,5.19625 10.14395,6.69329 3.57258,3.87353 5.83324,10.3032 5.13513,14.60513 -0.63472,3.91138 1.62079,8.61676 4.13044,8.61676 1.93469,0 2.88359,3.49757 1.59973,5.89649 -1.80527,3.37317 -1.1765,6.5009 2.10788,10.48543 3.15087,3.82255 3.16581,3.89576 3.80662,18.6531 0.6284,14.47138 0.72597,14.97401 4.20084,21.64024 1.96154,3.76303 4.90551,7.74979 6.56229,8.88674 1.65264,1.1341 7.74878,3.31942 13.54699,4.85627 8.87361,2.35199 11.86206,2.71322 18.88109,2.28221 7.66425,-0.47063 32.92577,-3.89232 38.86117,-5.26377 1.69994,-0.39279 3.36302,0.0785 5.101,1.44562 2.73801,2.15372 2.97266,3.75833 5.46453,37.36767 0.35681,4.8125 1.0498,8.75 1.53997,8.75 0.49018,0 2.02996,-1.6875 3.42175,-3.75 z"
       id="path21923" />
  </g>
</svg>
