<?xml version="1.0" encoding="utf-8"?>
<svg viewBox="0 0 500 500" xmlns="http://www.w3.org/2000/svg">
  <g id="Canvas" transform="matrix(10.327274322509766, 0, 0, 9.9990234375, -16906.04296875, -24534.50390625)" style="">
    <g id="Group" style="mix-blend-mode:normal;">
      <g id="g" style="mix-blend-mode:normal;">
        <g id="path" style="mix-blend-mode:normal;">
          <g id="path16 fill" style="mix-blend-mode:normal;">
            <path d="M 6.03059 2.83565C 6.06715 3.43376 5.92485 4.02921 5.6218 4.54615C 5.31875 5.0631 4.86869 5.47813 4.32893 5.73839C 3.78917 5.99864 3.18416 6.09233 2.59097 6.00753C 1.99778 5.92272 1.44326 5.66326 0.998048 5.26219C 0.552837 4.86113 0.23709 4.33661 0.0910307 3.75546C -0.0550287 3.17431 -0.0247891 2.56283 0.177897 1.99893C 0.380583 1.43503 0.746541 0.944221 1.22915 0.589037C 1.71176 0.233853 2.28918 0.0303686 2.88784 0.00450543C 3.28035 -0.0170932 3.67326 0.0391144 4.04396 0.169896C 4.41467 0.300677 4.75587 0.503453 5.04794 0.766561C 5.34 1.02967 5.57718 1.34792 5.74582 1.70301C 5.91446 2.0581 6.01124 2.44303 6.03059 2.83565L 6.03059 2.83565Z" transform="matrix(1, 0, 0, 1, 1673.47998046875, 2453.68994140625)" fill="#767677" style="mix-blend-mode: normal;"/>
          </g>
        </g>
        <g id="path" style="mix-blend-mode:normal;">
          <g id="path17 fill" style="mix-blend-mode:normal;">
            <path d="M 18.6962 7.12238C 10.6836 7.12238 3.64131 4.24672 0 0C 1.41284 3.82041 3.96215 7.1163 7.30479 9.44404C 10.6474 11.7718 14.623 13.0196 18.6962 13.0196C 22.7695 13.0196 26.745 11.7718 30.0877 9.44404C 33.4303 7.1163 35.9796 3.82041 37.3925 4.0486e-13C 33.7601 4.24672 26.7445 7.12238 18.6962 7.12238Z" transform="matrix(1, 0, 0, 1, 1643.2099609375, 2484.27001953125)" fill="#F37726" style="mix-blend-mode: normal;"/>
          </g>
        </g>
        <g id="path" style="mix-blend-mode:normal;">
          <g id="path18 fill" style="mix-blend-mode:normal;">
            <path d="M 18.6962 5.89725C 26.7089 5.89725 33.7512 8.77291 37.3925 13.0196C 35.9796 9.19922 33.4303 5.90333 30.0877 3.57559C 26.745 1.24785 22.7695 4.0486e-13 18.6962 0C 14.623 4.0486e-13 10.6474 1.24785 7.30479 3.57559C 3.96215 5.90333 1.41284 9.19922 0 13.0196C 3.64131 8.76401 10.648 5.89725 18.6962 5.89725Z" transform="matrix(1, 0, 0, 1, 1643.2099609375, 2457.8798828125)" fill="#F37726" style="mix-blend-mode: normal;"/>
          </g>
        </g>
        <g id="path" style="mix-blend-mode:normal;">
          <g id="path19 fill" style="mix-blend-mode:normal;">
            <path d="M 7.59576 3.56656C 7.64276 4.31992 7.46442 5.07022 7.08347 5.72186C 6.70251 6.3735 6.13619 6.89698 5.45666 7.22561C 4.77713 7.55424 4.01515 7.67314 3.26781 7.56716C 2.52046 7.46117 1.82158 7.13511 1.26021 6.63051C 0.698839 6.12591 0.300394 5.46561 0.115637 4.73375C -0.0691191 4.00188 -0.0318219 3.23159 0.222777 2.52099C 0.477376 1.8104 0.93775 1.19169 1.54524 0.743685C 2.15274 0.295678 2.87985 0.0386595 3.63394 0.00537589C 4.12793 -0.0210471 4.62229 0.0501173 5.08878 0.214803C 5.55526 0.37949 5.98473 0.63447 6.35264 0.965179C 6.72055 1.29589 7.01971 1.69584 7.233 2.1422C 7.4463 2.58855 7.56957 3.07256 7.59576 3.56656L 7.59576 3.56656Z" transform="matrix(1, 0, 0, 1, 1643.280029296875, 2496.090087890625)" fill="#9E9E9E" style="mix-blend-mode: normal;"/>
          </g>
        </g>
        <g id="path" style="mix-blend-mode:normal;">
          <g id="path20 fill" style="mix-blend-mode:normal;">
            <path d="M 2.25061 4.37943C 1.81886 4.39135 1.39322 4.27535 1.02722 4.04602C 0.661224 3.81668 0.371206 3.48424 0.193641 3.09052C 0.0160762 2.69679 -0.0411078 2.25935 0.0292804 1.83321C 0.0996686 1.40707 0.294486 1.01125 0.589233 0.695542C 0.883981 0.37983 1.2655 0.158316 1.68581 0.0588577C 2.10611 -0.0406005 2.54644 -0.0135622 2.95143 0.136572C 3.35641 0.286707 3.70796 0.553234 3.96186 0.902636C 4.21577 1.25204 4.3607 1.66872 4.37842 2.10027C 4.39529 2.6838 4.18131 3.25044 3.78293 3.67715C 3.38455 4.10387 2.83392 4.35623 2.25061 4.37943Z" transform="matrix(1, 0, 0, 1, 1641.8699951171875, 2458.429931640625)" fill="#616262" style="mix-blend-mode: normal;"/>
          </g>
        </g>
      </g>
    </g>
  </g>
  <g style="" transform="matrix(0.5714280009269714, 0, 0, 0.5714280009269714, 150.00009155273438, 135.84681701660156)">
    <g transform="matrix(1, 0, 0, 1, -74.531998, -40.800674)">
      <path style="fill:#808080;fill-opacity:1;stroke:none;stroke-width:0.0000" d="M 74.532 390.8 L 249.532 325.8 L 424.532 390.8 L 74.532 390.8 Z"/>
      <path style="fill:#333333;fill-opacity:1;stroke:none;stroke-width:0.0000" d="M 424.532 390.8 L 249.532 325.8 L 249.532 40.8 L 424.532 390.8 Z"/>
    </g>
    <path style="fill:#f2f2f2;fill-opacity:1;stroke:none;stroke-width:0.0000" d="M 0 349.999 L 175 284.999 L 175 -0.001 L 0 349.999 Z"/>
  </g>
</svg>
