<?xml version="1.0" encoding="UTF-8" standalone="no"?>
<svg viewBox="-20 -20 540 640" text-anchor="middle" version="1.1" width="800" height="800" xmlns="http://www.w3.org/2000/svg">
  <path d="M 438.724 28.354 C 439.102 34.334 437.632 40.288 434.503 45.457 C 431.373 50.626 426.725 54.776 421.151 57.378 C 415.576 59.98 409.328 60.917 403.202 60.069 C 397.076 59.221 391.35 56.627 386.752 52.617 C 382.154 48.606 378.893 43.362 377.385 37.551 C 375.876 31.74 376.189 25.626 378.282 19.987 C 380.375 14.349 384.154 9.441 389.138 5.89 C 394.122 2.338 400.086 0.303 406.268 0.045 C 410.322 -0.171 414.379 0.391 418.208 1.699 C 422.036 3.006 425.56 5.034 428.576 7.665 C 431.592 10.295 434.042 13.478 435.783 17.028 C 437.525 20.579 438.524 24.428 438.724 28.354 Z" fill="#767677" style="mix-blend-mode: normal;"/>
  <path d="M 256.919 376.988 C 174.17 376.988 101.443 348.234 63.838 305.771 C 78.429 343.971 104.756 376.927 139.276 400.202 C 173.797 423.477 214.854 435.954 256.919 435.954 C 298.985 435.954 340.041 423.477 374.562 400.202 C 409.082 376.927 435.409 343.971 450 305.771 C 412.488 348.234 340.036 376.988 256.919 376.988 Z" fill="#F37726" style="mix-blend-mode: normal;"/>
  <path d="M 256.919 100.862 C 339.668 100.862 412.396 129.616 450 172.078 C 435.409 133.878 409.082 100.923 374.562 77.648 C 340.041 54.372 298.985 41.895 256.919 41.895 C 214.854 41.895 173.797 54.372 139.276 77.648 C 104.756 100.923 78.429 133.878 63.838 172.078 C 101.443 129.527 173.803 100.862 256.919 100.862 Z" fill="#F37726" style="mix-blend-mode: normal;"/>
  <path d="M 143.005 459.622 C 143.49 467.155 141.649 474.657 137.714 481.173 C 133.78 487.689 127.932 492.923 120.914 496.209 C 113.896 499.495 106.027 500.684 98.309 499.624 C 90.591 498.564 83.373 495.304 77.576 490.258 C 71.779 485.213 67.664 478.611 65.756 471.293 C 63.848 463.975 64.233 456.273 66.862 449.167 C 69.491 442.062 74.246 435.876 80.52 431.396 C 86.793 426.916 94.302 424.346 102.09 424.014 C 107.192 423.749 112.297 424.461 117.115 426.108 C 121.932 427.754 126.367 430.304 130.167 433.611 C 133.966 436.917 137.056 440.917 139.259 445.38 C 141.461 449.843 142.735 454.682 143.005 459.622 Z" fill="#9E9E9E" style="mix-blend-mode: normal;"/>
  <path d="M 73.242 91.185 C 68.784 91.304 64.388 90.144 60.608 87.851 C 56.828 85.558 53.833 82.234 51.999 78.297 C 50.166 74.36 49.575 69.986 50.302 65.725 C 51.029 61.464 53.041 57.507 56.085 54.35 C 59.129 51.193 63.069 48.978 67.41 47.984 C 71.75 46.989 76.297 47.259 80.48 48.761 C 84.662 50.262 88.293 52.927 90.915 56.421 C 93.537 59.914 95.034 64.081 95.217 68.396 C 95.391 74.23 93.181 79.896 89.067 84.163 C 84.953 88.43 79.266 90.953 73.242 91.185 Z" fill="#616262" style="mix-blend-mode: normal;"/>
  <!--
     Super Flat Remix V1.08 Apps by Jeremiah C. Foster is licensed under CC BY 4.0.
     To view a copy of this license, visit http://creativecommons.org/licenses/by/4.0/
  -->
  <g transform="matrix(1, 0, 0, 1, -217.85433959960935, 76.31000518798828)">
    <path style="fill:#808080;fill-opacity:1;stroke:none;stroke-width:0.0000" d="M 349.299 268.69 L 471.799 223.19 L 594.299 268.69 L 349.299 268.69 Z"/>
    <path style="fill:#f2f2f2;fill-opacity:1;stroke:none;stroke-width:0.0000" d="M 349.299 268.69 L 471.799 223.19 L 471.799 23.69 L 349.299 268.69 Z"/>
    <path style="fill:#333333;fill-opacity:1;stroke:none;stroke-width:0.0000" d="M 594.299 268.69 L 471.799 223.19 L 471.799 23.69 L 594.299 268.69 Z"/>
  </g>
  <text xml:space="preserve" style="font-size:100px;font-family:Roboto;fill:#000000;stroke:none" x="250" y="580">
    <tspan> skgmsh </tspan>
  </text>
</svg>
